<svg width="83" height="83" viewBox="0 0 83 83" fill="none" xmlns="http://www.w3.org/2000/svg">
<path d="M29.4488 64.896C17.8648 64.896 9.73675 58.88 9.22475 48.576H16.5208C17.0328 54.72 20.6808 58.88 29.2568 58.88C36.6168 58.88 38.8568 55.68 38.8568 51.52C38.8568 45.696 34.3768 44.864 26.0568 42.752C18.8888 40.832 11.0168 38.528 11.0168 29.824C11.0168 21.888 17.1608 17.344 27.0168 17.344C37.4488 17.344 44.2328 22.656 44.9368 31.872H37.6408C36.8728 26.368 33.7368 23.36 27.0808 23.36C21.3208 23.36 18.3768 25.472 18.3768 29.44C18.3768 34.56 23.1768 35.648 29.0648 37.12C37.8968 39.36 46.2168 41.472 46.2168 51.136C46.2168 59.008 40.9048 64.896 29.4488 64.896ZM70.4623 52.352H55.5503V37.376H70.4623V52.352Z" fill="black"/>
</svg>
